PathFileType	4	(X/Y/Z)	C:/Users/beibeiliu/ov580/test_trc/User3\sequence.14_training_dense_right.trc
DataRate	CameraRate	NumFrames	NumMarkers	Units	OrigDataRate	OrigDataStartFrame	OrigNumFrames
120	120	8	19	mm	120	62	246
Frame#	Time	ThumbCMC			ThumbMCP			ThumbIP			ThumbTip			IndexMCP			IndexPIP			IndexTip			MiddleMCP			MiddlePIP			MiddleTip			RingMCP			RingPIP			RingTip			PinkyMCP			PinkyPIP			PinkyTip			BackHand1			BackHand2			BackHand3	
		X0	Y0	Z0	X1	Y1	Z1	X2	Y2	Z2	X3	Y3	Z3	X4	Y4	Z4	X5	Y5	Z5	X6	Y6	Z6	X7	Y7	Z7	X8	Y8	Z8	X9	Y9	Z9	X10	Y10	Z10	X11	Y11	Z11	X12	Y12	Z12	X13	Y13	Z13	X14	Y14	Z14	X15	Y15	Z15	X16	Y16	Z16	X17	Y17	Z17	X18	Y18	Z18	
61	0.508333	143.949	-30.0658	16.6736	121.249	-43.4918	6.95684	100.257	-55.8286	-10.7948	89.113	-66.4629	-22.3694	156.011	-30.349	-54.431	149.504	-33.3924	-82.3581	140.041	-33.4387	-101.335	189.424	-29.5531	-60.042	184.893	-31.4496	-90.7132	185.792	-36.0393	-120.244	207.406	-35.251	-53.6444	214.061	-38.1512	-74.1215	223.041	-44.8557	-99.2382	229.067	-47.297	-36.0175	239.896	-56.7282	-47.4387	252.823	-66.116	-69.6915	206.058	-18.6541	-8.75982	207.265	-8.19765	20.3235	170.634	-8.95739	2.81116	
62	0.516667	142.872	-29.5561	17.5988	122.963	-44.66	4.64568	100.198	-56.7092	-14.3513	85.819	-65.6473	-22.2902	158.821	-31.5798	-55.8276	150.84	-34.6715	-79.163	139.431	-33.4057	-103.198	188.918	-28.2953	-65.834	185.283	-32.1055	-90.0355	189.024	-37.2592	-122.604	210.748	-36.5359	-51.5724	213.602	-39.3832	-79.1587	223.447	-46.6146	-104.402	231.283	-48.1284	-32.3045	240.054	-58.1533	-51.3144	250.418	-67.9867	-70.1051	204.735	-18.0111	-6.1714	208.875	-8.03714	22.5186	173.125	-11.5445	1.79961	
63	0.525	141.999	-31.0692	16.4057	122.447	-45.567	3.01731	100.139	-56.6296	-12.3183	83.5011	-68.0872	-24.0542	158.828	-32.1413	-57.1233	143.79	-33.9066	-81.0789	142.04	-36.0937	-105.482	188.802	-29.8316	-63.0948	186.686	-33.0335	-87.99	190.173	-38.2869	-123.678	211.01	-37.2008	-50.9985	217.009	-41.4787	-75.937	223.402	-49.0638	-99.938	230.631	-48.5472	-32.5228	236.959	-57.5492	-49.0043	251.405	-67.0707	-66.7973	205.326	-17.0963	-9.71962	206.634	-8.74333	23.1016	170.465	-11.8791	2.02123	
64	0.533333	144.386	-29.7086	22.1453	119.849	-44.7716	2.67151	100.682	-56.7832	-9.22437	86.611	-68.754	-25.0083	154.18	-31.0373	-54.1114	142.812	-35.4314	-82.4256	139.969	-38.057	-104.999	184.031	-29.5638	-63.2972	187.667	-34.7257	-89.6785	184.916	-40.8664	-120.498	209.311	-36.9696	-51.8775	218.184	-42.2644	-79.6162	220.616	-50.3925	-99.4226	228.615	-48.4746	-34.409	239.705	-59.0035	-50.7935	253.08	-68.9019	-65.1091	206.223	-18.3044	-9.40045	207.377	-8.26875	21.9825	172.678	-11.2047	4.64536	
65	0.541667	142.892	-28.9035	20.8007	124.26	-44.3845	4.47153	102.586	-55.5375	-10.331	90.2832	-68.8362	-23.2578	155.542	-30.6271	-53.9415	148.031	-36.119	-82.2122	140.546	-39.2199	-102.131	188.815	-28.5646	-65.4229	187.066	-34.5468	-88.8625	183.72	-43.4228	-118.401	207.168	-36.1921	-54.4721	213.25	-42.0205	-77.9248	218.629	-53.5181	-102.576	228.912	-48.2832	-35.9238	241.719	-60.8399	-51.569	249.581	-70.8883	-65.8085	205.604	-16.718	-6.00032	205.255	-8.48337	23.8724	174.531	-8.66304	1.9856	
66	0.55	142.283	-27.7424	20.9155	124.24	-43.2296	6.48846	101.62	-55.6402	-12.6738	92.3872	-69.315	-25.4874	156.084	-30.9766	-57.1358	144.044	-34.3442	-78.1706	136.31	-41.2117	-105.216	186.668	-28.2437	-61.2504	186.32	-34.3265	-89.5289	186.375	-46.9106	-121.426	209.838	-35.1758	-55.5495	215.773	-42.812	-79.8665	218.639	-54.7476	-100.429	229.233	-46.5671	-34.2602	238.457	-57.2105	-47.8027	252.518	-73.2581	-64.6027	207.862	-15.8122	-9.25056	207.435	-8.60253	21.5125	173.617	-8.74944	5.57672	
67	0.558333	141.461	-26.4771	21.9874	123.912	-42.4891	5.74953	106.193	-56.315	-14.0441	92.372	-69.0984	-24.6496	156.157	-30.3849	-56.2258	143.072	-36.1042	-79.639	138.314	-43.8472	-104.007	183.46	-28.774	-64.9076	186.382	-35.0337	-88.7881	186.036	-47.5905	-117.919	209.521	-34.4883	-49.6341	213.985	-41.558	-75.3564	219.259	-56.5057	-98.7192	230.725	-46.5461	-31.3751	239.279	-58.9015	-52.219	250.845	-72.4954	-63.62	205.318	-14.8777	-5.25292	209.168	-5.78843	24.5704	170.884	-7.61786	3.29906	
68	0.566667	142.704	-26.9576	22.463	126.142	-41.7139	7.28344	101.945	-55.2581	-10.785	92.0327	-68.6215	-25.0531	157.099	-30.1437	-53.5731	147.162	-34.9064	-78.4931	135.435	-44.4171	-100.966	187.747	-27.5349	-64.9797	187.004	-35.4094	-88.4904	185.823	-49.091	-118.503	211.175	-34.2913	-50.9271	213.084	-41.8293	-75.5068	217.884	-57.6211	-101.665	229.473	-46.3055	-32.9699	236.78	-56.8845	-47.3965	248.786	-73.9426	-66.6145	203.477	-13.977	-4.78676	207.93	-6.42307	21.5426	175.648	-7.69501	3.79376	
